<mxfile host="Electron" modified="2023-11-14T07:55:02.765Z" agent="Mozilla/5.0 (Windows NT 10.0; Win64; x64) AppleWebKit/537.36 (KHTML, like Gecko) draw.io/22.0.2 Chrome/114.0.5735.289 Electron/25.8.4 Safari/537.36" etag="RedgkZSjKeJ4i0mGpjtb" version="22.0.2" type="device">
  <diagram name="Seite-1" id="beFWHwSRqvW78vBcRAKK">
    <mxGraphModel dx="1108" dy="613" grid="1" gridSize="10" guides="1" tooltips="1" connect="1" arrows="1" fold="1" page="1" pageScale="1" pageWidth="827" pageHeight="1169" math="0" shadow="0">
      <root>
        <mxCell id="0" />
        <mxCell id="1" parent="0" />
        <mxCell id="rkL8XJOfAmFmVI4L9c5--6" value="" style="edgeStyle=orthogonalEdgeStyle;rounded=0;orthogonalLoop=1;jettySize=auto;html=1;" edge="1" parent="1" source="rkL8XJOfAmFmVI4L9c5--1" target="rkL8XJOfAmFmVI4L9c5--4">
          <mxGeometry relative="1" as="geometry" />
        </mxCell>
        <mxCell id="rkL8XJOfAmFmVI4L9c5--1" value="&lt;font style=&quot;font-size: 16px;&quot;&gt;Transition 1&lt;/font&gt;" style="rounded=0;whiteSpace=wrap;html=1;fillColor=#1ba1e2;fontColor=#ffffff;strokeColor=#006EAF;" vertex="1" parent="1">
          <mxGeometry x="104" y="160" width="110" height="50" as="geometry" />
        </mxCell>
        <mxCell id="rkL8XJOfAmFmVI4L9c5--8" value="" style="edgeStyle=orthogonalEdgeStyle;rounded=0;orthogonalLoop=1;jettySize=auto;html=1;" edge="1" parent="1" source="rkL8XJOfAmFmVI4L9c5--2" target="rkL8XJOfAmFmVI4L9c5--5">
          <mxGeometry relative="1" as="geometry" />
        </mxCell>
        <mxCell id="rkL8XJOfAmFmVI4L9c5--2" value="&lt;font style=&quot;font-size: 16px;&quot;&gt;Transition 2&lt;/font&gt;" style="rounded=0;whiteSpace=wrap;html=1;fillColor=#1ba1e2;fontColor=#ffffff;strokeColor=#006EAF;" vertex="1" parent="1">
          <mxGeometry x="364" y="160" width="110" height="50" as="geometry" />
        </mxCell>
        <mxCell id="rkL8XJOfAmFmVI4L9c5--11" style="edgeStyle=orthogonalEdgeStyle;rounded=0;orthogonalLoop=1;jettySize=auto;html=1;entryX=1;entryY=0.5;entryDx=0;entryDy=0;" edge="1" parent="1" source="rkL8XJOfAmFmVI4L9c5--3" target="rkL8XJOfAmFmVI4L9c5--10">
          <mxGeometry relative="1" as="geometry">
            <Array as="points">
              <mxPoint x="644" y="290" />
            </Array>
          </mxGeometry>
        </mxCell>
        <mxCell id="rkL8XJOfAmFmVI4L9c5--19" style="edgeStyle=orthogonalEdgeStyle;rounded=0;orthogonalLoop=1;jettySize=auto;html=1;entryX=0;entryY=0.5;entryDx=0;entryDy=0;" edge="1" parent="1" source="rkL8XJOfAmFmVI4L9c5--3" target="rkL8XJOfAmFmVI4L9c5--15">
          <mxGeometry relative="1" as="geometry" />
        </mxCell>
        <mxCell id="rkL8XJOfAmFmVI4L9c5--3" value="&lt;font style=&quot;font-size: 16px;&quot;&gt;Transition 3&lt;/font&gt;" style="rounded=0;whiteSpace=wrap;html=1;fillColor=#1ba1e2;fontColor=#ffffff;strokeColor=#006EAF;" vertex="1" parent="1">
          <mxGeometry x="614" y="160" width="110" height="50" as="geometry" />
        </mxCell>
        <mxCell id="rkL8XJOfAmFmVI4L9c5--7" value="" style="edgeStyle=orthogonalEdgeStyle;rounded=0;orthogonalLoop=1;jettySize=auto;html=1;" edge="1" parent="1" source="rkL8XJOfAmFmVI4L9c5--4" target="rkL8XJOfAmFmVI4L9c5--2">
          <mxGeometry relative="1" as="geometry" />
        </mxCell>
        <mxCell id="rkL8XJOfAmFmVI4L9c5--4" value="" style="ellipse;whiteSpace=wrap;html=1;aspect=fixed;fillColor=#fa6800;fontColor=#000000;strokeColor=#C73500;" vertex="1" parent="1">
          <mxGeometry x="274" y="165" width="40" height="40" as="geometry" />
        </mxCell>
        <mxCell id="rkL8XJOfAmFmVI4L9c5--9" value="" style="edgeStyle=orthogonalEdgeStyle;rounded=0;orthogonalLoop=1;jettySize=auto;html=1;" edge="1" parent="1" source="rkL8XJOfAmFmVI4L9c5--5" target="rkL8XJOfAmFmVI4L9c5--3">
          <mxGeometry relative="1" as="geometry" />
        </mxCell>
        <mxCell id="rkL8XJOfAmFmVI4L9c5--5" value="" style="ellipse;whiteSpace=wrap;html=1;aspect=fixed;fillColor=#fa6800;fontColor=#000000;strokeColor=#C73500;" vertex="1" parent="1">
          <mxGeometry x="524" y="165" width="40" height="40" as="geometry" />
        </mxCell>
        <mxCell id="rkL8XJOfAmFmVI4L9c5--12" style="edgeStyle=orthogonalEdgeStyle;rounded=0;orthogonalLoop=1;jettySize=auto;html=1;entryX=0.5;entryY=1;entryDx=0;entryDy=0;" edge="1" parent="1" source="rkL8XJOfAmFmVI4L9c5--10" target="rkL8XJOfAmFmVI4L9c5--2">
          <mxGeometry relative="1" as="geometry" />
        </mxCell>
        <mxCell id="rkL8XJOfAmFmVI4L9c5--10" value="" style="ellipse;whiteSpace=wrap;html=1;aspect=fixed;fillColor=#fa6800;fontColor=#000000;strokeColor=#C73500;" vertex="1" parent="1">
          <mxGeometry x="524" y="270" width="40" height="40" as="geometry" />
        </mxCell>
        <mxCell id="rkL8XJOfAmFmVI4L9c5--14" value="" style="edgeStyle=orthogonalEdgeStyle;rounded=0;orthogonalLoop=1;jettySize=auto;html=1;" edge="1" parent="1" source="rkL8XJOfAmFmVI4L9c5--13" target="rkL8XJOfAmFmVI4L9c5--1">
          <mxGeometry relative="1" as="geometry" />
        </mxCell>
        <mxCell id="rkL8XJOfAmFmVI4L9c5--13" value="" style="ellipse;whiteSpace=wrap;html=1;aspect=fixed;fillColor=#fa6800;fontColor=#000000;strokeColor=#C73500;" vertex="1" parent="1">
          <mxGeometry y="165" width="40" height="40" as="geometry" />
        </mxCell>
        <mxCell id="rkL8XJOfAmFmVI4L9c5--15" value="" style="ellipse;whiteSpace=wrap;html=1;aspect=fixed;fillColor=#fa6800;fontColor=#000000;strokeColor=#C73500;" vertex="1" parent="1">
          <mxGeometry x="787" y="165" width="40" height="40" as="geometry" />
        </mxCell>
        <mxCell id="rkL8XJOfAmFmVI4L9c5--16" value="End" style="text;html=1;align=center;verticalAlign=middle;resizable=0;points=[];autosize=1;strokeColor=none;fillColor=none;" vertex="1" parent="1">
          <mxGeometry x="787" y="205" width="40" height="30" as="geometry" />
        </mxCell>
        <mxCell id="rkL8XJOfAmFmVI4L9c5--17" value="Start" style="text;html=1;align=center;verticalAlign=middle;resizable=0;points=[];autosize=1;strokeColor=none;fillColor=none;" vertex="1" parent="1">
          <mxGeometry x="-5" y="200" width="50" height="30" as="geometry" />
        </mxCell>
      </root>
    </mxGraphModel>
  </diagram>
</mxfile>
